<?xml version="1.0" standalone="no"?><!DOCTYPE svg PUBLIC "-//W3C//DTD SVG 1.1//EN" "http://www.w3.org/Graphics/SVG/1.1/DTD/svg11.dtd"><svg t="1636811165288" class="icon" viewBox="0 0 1024 1024" version="1.1" xmlns="http://www.w3.org/2000/svg" p-id="7154" xmlns:xlink="http://www.w3.org/1999/xlink" width="200" height="200"><defs><style type="text/css"></style></defs><path d="M997.65534176 975.53439452l-953.21172669 0 0-955.22272189 953.21172669 0L997.65534176 975.53439452zM94.71849518 925.25951442l852.66196649 0 0-854.67296171-852.66196649 0L94.71849518 925.25951442z" p-id="7155"></path><path d="M809.62729018 522.05497602l-578.16112115 0c-14.07696642 0-25.13744005-11.06047362-25.13744005-25.13744005s11.06047362-25.13744005 25.13744005-25.13744004l578.16112115 0c14.07696642 0 25.13744005 11.06047362 25.13744006 25.13744004S823.70425663 522.05497602 809.62729018 522.05497602z" p-id="7156"></path><path d="M521.04947843 800.57781178c-14.07696642 0-25.13744005-11.06047362-25.13744006-25.13744005l0-556.04017391c0-14.07696642 11.06047362-25.13744005 25.13744006-25.13744005s25.13744005 11.06047362 25.13744004 25.13744005l0 556.04017391C546.18691847 788.51184055 535.12644485 800.57781178 521.04947843 800.57781178z" p-id="7157"></path></svg>