<?xml version="1.0" standalone="no"?><!DOCTYPE svg PUBLIC "-//W3C//DTD SVG 1.1//EN" "http://www.w3.org/Graphics/SVG/1.1/DTD/svg11.dtd"><svg t="1635839497715" class="icon" viewBox="0 0 1024 1024" version="1.1" xmlns="http://www.w3.org/2000/svg" p-id="2574" xmlns:xlink="http://www.w3.org/1999/xlink" width="200" height="200"><defs><style type="text/css"></style></defs><path d="M107.06658814 380.99213193c19.05569033 0 35.72941866-16.67372833 35.72941866-35.72941866v-152.44552034l209.61259023 209.61259021c7.14588372 7.14588372 16.67372833 9.52784461 26.20157294 9.5278446s19.05569033-2.38196089 26.20157405-9.5278446c14.29176747-14.29176747 14.29176747-35.72941866 0-50.02118611l-209.61258911-209.61259023H345.26271327c19.05569033 0 35.72941866-16.67372833 35.72941866-35.72941866s-16.67372833-35.72941866-35.72941866-35.72941867H107.06658814c-4.76392285 0-9.52784461 0-11.90980549 2.38196198-9.52784461 4.76392285-16.67372833 11.90980658-21.4376512 19.05568921-2.38196089 4.76392285-2.38196089 9.52784461-2.38196198 14.29176748v238.19612513c0 19.05569033 16.67372833 35.72941866 35.72941867 35.72941866zM916.93341186 643.00786807c-19.05569033 0-35.72941866 16.67372833-35.72941866 35.72941866v152.44552034L657.29963553 607.27844939c-14.29176747-14.29176747-35.72941866-14.29176747-50.02118614 0s-14.29176747 35.72941866 0 50.02118614l223.90435768 223.90435767H678.73728673c-19.05569033 0-35.72941866 16.67372833-35.72941866 35.72941866s16.67372833 35.72941866 35.72941866 35.72941867h238.19612513c4.76392285 0 9.52784461 0 11.90980549-2.38196198 9.52784461-4.76392285 16.67372833-9.52784461 19.05569031-19.05568921 2.38196089-4.76392285 2.38196089-9.52784461 2.38196089-11.9098066V678.73728673c2.38196089-19.05569033-14.29176747-35.72941866-33.34745669-35.72941866zM366.70036447 604.89648852l-223.90435767 223.90435657V678.73728673c0-19.05569033-16.67372833-35.72941866-35.72941866-35.72941866s-35.72941866 16.67372833-35.72941867 35.72941866v238.19612513c0 4.76392285 0 9.52784461 2.38196198 11.90980549 4.76392285 9.52784461 9.52784461 16.67372833 19.05568921 19.05569031 4.76392285 2.38196089 9.52784461 2.38196089 11.9098066 2.38196089h238.19612404c19.05569033 0 35.72941866-16.67372833 35.72941867-35.72941868s-16.67372833-35.72941866-35.72941867-35.72941865h-152.44551925l223.90435658-223.90435657c14.29176747-14.29176747 14.29176747-35.72941866 0-50.02118613s-33.34745778-11.90980658-47.63922416 0zM950.28086855 95.15678265c0-2.38196089 0-2.38196089 0 0-4.76392285-9.52784461-11.90980658-16.67372833-19.05568921-19.05569031-4.76392285-2.38196089-9.52784461-2.38196089-11.9098066-2.38196089H678.73728673c-19.05569033 0-35.72941866 16.67372833-35.72941866 35.72941868s16.67372833 35.72941866 35.72941866 35.72941865h152.44552034l-209.61259021 209.61258911c-14.29176747 14.29176747-14.29176747 35.72941866 0 50.02118613 7.14588372 7.14588372 16.67372833 9.52784461 26.20157405 9.52784461s19.05569033-2.38196089 26.20157407-9.52784461l209.6125891-209.61258911V345.26271327c0 19.05569033 16.67372833 35.72941866 35.72941866 35.72941866s35.72941866-16.67372833 35.72941866-35.72941866V107.06658814c-2.38196089-4.76392285-2.38196089-9.52784461-4.76392285-11.90980549z" p-id="2575"></path></svg>