<?xml version="1.0" standalone="no"?><!DOCTYPE svg PUBLIC "-//W3C//DTD SVG 1.1//EN" "http://www.w3.org/Graphics/SVG/1.1/DTD/svg11.dtd"><svg t="1635839489080" class="icon" viewBox="0 0 1024 1024" version="1.1" xmlns="http://www.w3.org/2000/svg" p-id="2443" xmlns:xlink="http://www.w3.org/1999/xlink" width="200" height="200"><defs><style type="text/css"></style></defs><path d="M286.96137581 337.776549H132.09608641c-19.35816161 0-36.29655229 16.93839068-36.2965523 36.2965523s16.93839068 36.29655229 36.2965523 36.29655228h241.97701489c4.83954067 0 9.67908024 0 12.09885113-2.41976976 9.67908024-4.83954067 16.93839068-9.67908024 19.35816046-19.35816162 2.41976979-4.83954067 2.41976979-9.67908024 2.41977093-12.09885112v-241.97701491c0-19.35816161-16.93839068-36.29655229-36.29655231-36.29655229s-36.29655229 16.93839068-36.29655228 36.29655229v154.86528941L127.25654571 74.02160274c-14.51862092-14.51862092-36.29655229-14.51862092-50.81517321 0-14.51862092 14.51862092-14.51862092 36.29655229 0 50.81517321l210.52000331 212.93977305zM720.10023353 669.28506031H874.96552291c19.35816161 0 36.29655229-16.93839068 36.29655228-36.29655229s-16.93839068-36.29655229-36.29655228-36.2965523H632.98850802c-4.83954067 0-9.67908024 0-12.09885115 2.41976978-9.67908024 4.83954067-16.93839068 9.67908024-19.3581616 19.35816161-2.41976979 4.83954067-2.41976979 9.67908024-2.41976977 12.09884999v241.97701602c0 19.35816161 16.93839068 36.29655229 36.2965523 36.2965523s36.29655229-16.93839068 36.29655228-36.2965523v-154.86529053l227.45839397 227.45839512c7.25931045 7.25931045 16.93839068 9.67908024 26.61747207 9.67908023s19.35816161-2.41976979 26.61747206-9.67908023c14.51862092-14.51862092 14.51862092-36.29655229 0-50.81517319l-232.29793465-225.03862421zM424.8882745 618.46988711c-4.83954067-9.67908024-9.67908024-16.93839068-19.35816161-19.35816161-4.83954067-2.41976979-9.67908024-2.41976979-12.09884999-2.41976978H149.03447709c-19.35816161 0-36.29655229 16.93839068-36.29655228 36.2965523s16.93839068 36.29655229 36.29655228 36.29655229h154.86528938L76.4413725 896.74345429c-14.51862092 14.51862092-14.51862092 36.29655229 0 50.81517321 7.25931045 7.25931045 16.93839068 9.67908024 26.61747208 9.67908023s19.35816161-2.41976979 26.6174709-9.67908023l227.45839513-227.45839397V874.96552291c0 19.35816161 16.93839068 36.29655229 36.29655229 36.29655228s36.29655229-16.93839068 36.29655227-36.29655228V632.98850802c-2.41976979-4.83954067-2.41976979-9.67908024-4.83954067-14.51862091zM616.05011618 388.5917222c4.83954067 9.67908024 9.67908024 16.93839068 19.35816162 19.35816162 4.83954067 2.41976979 9.67908024 2.41976979 12.09885112 2.41976976h241.97701491c19.35816161 0 36.29655229-16.93839068 36.29655229-36.29655228s-16.93839068-36.29655229-36.29655229-36.2965523h-154.86528941L947.5586275 124.83677595c14.51862092-14.51862092 14.51862092-36.29655229 0-50.81517321-14.51862092-14.51862092-36.29655229-14.51862092-50.81517321 0l-212.93977307 212.93977307V132.09608641c0-19.35816161-16.93839068-36.29655229-36.2965523-36.2965523s-36.29655229 16.93839068-36.29655229 36.2965523v241.97701489c2.41976979 4.83954067 2.41976979 9.67908024 4.83953955 14.5186209z" p-id="2444"></path></svg>