<?xml version="1.0" standalone="no"?><!DOCTYPE svg PUBLIC "-//W3C//DTD SVG 1.1//EN" "http://www.w3.org/Graphics/SVG/1.1/DTD/svg11.dtd"><svg t="1637156211881" class="icon" viewBox="0 0 1024 1024" version="1.1" xmlns="http://www.w3.org/2000/svg" p-id="24150" xmlns:xlink="http://www.w3.org/1999/xlink" width="200" height="200"><defs><style type="text/css"></style></defs><path d="M910.07051852 905.216H113.92948148c-5.33997037 0-9.70903703 4.36906667-9.70903703 9.70903703v72.81777779c0 5.33997037 4.36906667 9.70903703 9.70903703 9.70903703h796.14103704c5.33997037 0 9.70903703-4.36906667 9.70903703-9.70903703v-72.81777779c0-5.33997037-4.36906667-9.70903703-9.70903703-9.70903703z m0-878.66785185H113.92948148c-5.33997037 0-9.70903703 4.36906667-9.70903703 9.70903703v72.81777779c0 5.33997037 4.36906667 9.70903703 9.70903703 9.70903703h796.14103704c5.33997037 0 9.70903703-4.36906667 9.70903703-9.70903703v-72.81777779c0-5.33997037-4.36906667-9.70903703-9.70903703-9.70903703zM631.90660741 349.37362963c7.28177778 0 11.40811852-8.49540741 6.91768889-14.19946666L516.49042963 180.31502222c-3.51952592-4.49042963-10.31585185-4.49042963-13.71401481 0L380.44254815 335.17416297c-4.49042963 5.70405925-0.48545185 14.19946667 6.91768888 14.19946666H468.30933333v325.25274074h-76.21594074c-7.28177778 0-11.40811852 8.49540741-6.91768889 14.19946666l122.33386667 154.73777779c3.51952592 4.49042963 10.31585185 4.49042963 13.71401481 0l122.33386667-154.73777779c4.49042963-5.70405925 0.48545185-14.19946667-6.91768888-14.19946666H555.69066667V349.37362963h76.21594074z" p-id="24151"></path></svg>