<?xml version="1.0" standalone="no"?><!DOCTYPE svg PUBLIC "-//W3C//DTD SVG 1.1//EN" "http://www.w3.org/Graphics/SVG/1.1/DTD/svg11.dtd"><svg t="1636624148385" class="icon" viewBox="0 0 1024 1024" version="1.1" xmlns="http://www.w3.org/2000/svg" p-id="2606" xmlns:xlink="http://www.w3.org/1999/xlink" width="200" height="200"><defs><style type="text/css"></style></defs><path d="M511.999488 6.432503c-279.217283 0-505.567497 226.349191-505.567497 505.567497s226.349191 505.567497 505.567497 505.567497 505.567497-226.349191 505.567498-505.567497S791.216771 6.432503 511.999488 6.432503z m0 780.064268c-24.990161 0-45.249577-20.258393-45.249576-45.249577 0-24.990161 20.258393-45.249577 45.249576-45.249576 24.990161 0 45.249577 20.258393 45.249577 45.249576s-20.259416 45.249577-45.249577 45.249577z m60.149939-493.117954l-21.960151 311.908846c-1.073448 17.842367-17.84339 31.826869-38.169322 31.826869-20.324908 0-37.095873-13.983479-38.169321-31.826869l-22.00006-312.572972c-1.101077-18.307971 8.751315-35.791158 25.986861-46.112223 19.917632-11.92868 46.043662-12.146645 66.218144-0.557702l1.155313 0.663102c17.798365 10.226922 28.061103 28.005844 26.938536 46.670949z" p-id="2607"></path></svg>