<?xml version="1.0" standalone="no"?><!DOCTYPE svg PUBLIC "-//W3C//DTD SVG 1.1//EN" "http://www.w3.org/Graphics/SVG/1.1/DTD/svg11.dtd"><svg t="1635926315993" class="icon" viewBox="0 0 1024 1024" version="1.1" xmlns="http://www.w3.org/2000/svg" p-id="869" xmlns:xlink="http://www.w3.org/1999/xlink" width="200" height="200"><defs><style type="text/css"></style></defs><path d="M139.69419166 383.45551908c-68.15885424 0-123.62402267 55.46784254-123.62402268 123.62402266 0 68.15885424 55.46516714 123.62402267 123.62402268 123.62402267 68.15618015 0 123.62402267-55.46516714 123.62402265-123.62402267C263.31821431 438.92336159 207.85037179 383.45551908 139.69419166 383.45551908z" p-id="870"></path><path d="M510.56625964 383.45551908c-68.15885424 0-123.62402267 55.46784254-123.62402266 123.62402266 0 68.15885424 55.46516714 123.62402267 123.62402266 123.62402267 68.15618015 0 123.62402267-55.46516714 123.62402268-123.62402267C634.19028232 438.92336159 578.72377687 383.45551908 510.56625964 383.45551908z" p-id="871"></path><path d="M881.4396647 383.45551908c-68.15885424 0-123.62402267 55.46784254-123.62402267 123.62402266 0 68.15885424 55.46516714 123.62402267 123.62402267 123.62402267 68.15618015 0 123.62402267-55.46516714 123.62402267-123.62402267C1005.06368603 438.92336159 949.59584351 383.45551908 881.4396647 383.45551908z" p-id="872"></path></svg>