<?xml version="1.0" standalone="no"?><!DOCTYPE svg PUBLIC "-//W3C//DTD SVG 1.1//EN" "http://www.w3.org/Graphics/SVG/1.1/DTD/svg11.dtd"><svg t="1637198318554" class="icon" viewBox="0 0 1024 1024" version="1.1" xmlns="http://www.w3.org/2000/svg" p-id="34414" xmlns:xlink="http://www.w3.org/1999/xlink" width="200" height="200"><defs><style type="text/css"></style></defs><path d="M548.827429 548.827429v295.460571l68.699428-68.717714a36.571429 36.571429 0 0 1 51.730286 51.730285l-129.298286 129.28a37.229714 37.229714 0 0 1-0.950857 0.914286 36.48 36.48 0 0 1-26.752 11.648c-9.014857 0-17.28-3.254857-23.643429-8.667428a36.827429 36.827429 0 0 1-4.571428-3.876572l-129.28-129.298286a36.571429 36.571429 0 1 1 51.712-51.730285l69.211428 69.211428V548.827429H179.712l68.717714 68.699428a36.571429 36.571429 0 0 1-51.730285 51.730286l-129.28-129.298286a37.229714 37.229714 0 0 1-0.914286-0.950857A36.48 36.48 0 0 1 54.857143 512.256c0-9.014857 3.254857-17.28 8.667428-23.643429 1.152-1.609143 2.450286-3.126857 3.876572-4.571428l129.298286-129.28a36.571429 36.571429 0 1 1 51.730285 51.712L179.2 475.684571h296.466286V179.218286l-69.211429 69.211428a36.571429 36.571429 0 0 1-51.730286-51.730285l129.298286-129.28c1.444571-1.462857 2.962286-2.742857 4.571429-3.894858 6.363429-5.412571 14.628571-8.667429 23.643428-8.667428 10.569143 0 20.077714 4.48 26.752 11.648 0.329143 0.292571 0.64 0.585143 0.950857 0.914286l129.28 129.28a36.571429 36.571429 0 1 1-51.712 51.730285l-68.699428-68.717714v295.972571h295.954286l-69.211429-69.211428a36.571429 36.571429 0 0 1 51.730286-51.730286l129.28 129.298286c1.462857 1.444571 2.742857 2.962286 3.894857 4.571428 5.412571 6.363429 8.667429 14.628571 8.667428 23.643429 0 10.569143-4.48 20.077714-11.648 26.752a37.229714 37.229714 0 0 1-0.914285 0.950857l-129.28 129.28a36.571429 36.571429 0 1 1-51.730286-51.712l68.717714-68.699428H548.827429z" p-id="34415"></path></svg>