<?xml version="1.0" standalone="no"?><!DOCTYPE svg PUBLIC "-//W3C//DTD SVG 1.1//EN" "http://www.w3.org/Graphics/SVG/1.1/DTD/svg11.dtd"><svg t="1635906523518" class="icon" viewBox="0 0 1024 1024" version="1.1" xmlns="http://www.w3.org/2000/svg" p-id="838" xmlns:xlink="http://www.w3.org/1999/xlink" width="200" height="200"><defs><style type="text/css"></style></defs><path d="M924.83044543 756.73641504l-83.38466333-125.18882209v-194.25961878a329.90054556 329.90054556 0 0 0-204.48380924-304.90879 124.73512364 124.73512364 0 0 0-249.92394572 0 329.90054556 329.90054556 0 0 0-204.48380924 304.90879v194.25961878L98.94270534 756.73641504a79.52183637 79.52183637 0 0 0 66.34328088 123.59981247h693.42802756a79.52183637 79.52183637 0 0 0 66.11643165-123.59981247zM512 85.12105882a56.57385389 56.57385389 0 0 1 47.93973805 26.5828952 297.18313608 297.18313608 0 0 0-95.8794761 0A56.57385389 56.57385389 0 0 1 512 85.12105882z m356.71029 721.1462339a10.90580315 10.90580315 0 0 1-9.99627622 5.90766505H165.28598622a11.36056663 11.36056663 0 0 1-9.54257776-17.72193014l89.29126337-133.82400294a34.08063487 34.08063487 0 0 0 5.68081582-18.85724129v-204.48380923a261.28451235 261.28451235 0 0 1 151.09010459-236.51960601 260.8308139 260.8308139 0 0 1 220.38881552 0 261.28451235 261.28451235 0 0 1 151.09010459 236.51960601v204.48380923a34.08063487 34.08063487 0 0 0 5.68081582 18.85724129l89.29126337 133.82400294a10.90580315 10.90580315 0 0 1 0.45369846 11.81426509z m-197.66768227 142.23020455H352.95739227a34.08063487 34.08063487 0 0 0 0 68.16126973h318.08521546a34.08063487 34.08063487 0 0 0 0-68.16126973z" p-id="839"></path></svg>