<?xml version="1.0" standalone="no"?><!DOCTYPE svg PUBLIC "-//W3C//DTD SVG 1.1//EN" "http://www.w3.org/Graphics/SVG/1.1/DTD/svg11.dtd"><svg t="1637551840067" class="icon" viewBox="0 0 1024 1024" version="1.1" xmlns="http://www.w3.org/2000/svg" p-id="4291" xmlns:xlink="http://www.w3.org/1999/xlink" width="200" height="200"><defs><style type="text/css"></style></defs><path d="M858.52569594 376.46309375l-31.08004781 0c0.33097594-1.88704031 0.44130094-3.84795094 0.29452031-5.85491062-2.57009719-35.08053563-10.6084875-69.16430625-23.99141344-101.62198032-15.94918688-38.6838525-38.77690969-73.41998156-67.84807875-103.24232156-29.07021-29.82234-62.93045344-53.24006344-100.63960594-69.60177-39.05608031-16.94691-80.52684281-25.53884438-123.26106937-25.53884438-42.73422656 0-84.20498906 8.59289438-123.26202844 25.53884438-37.70915344 16.36170656-71.56939594 39.77943-100.63960594 69.60177-29.07117 29.82234-51.89793281 64.55846906-67.84807875 103.24232156-13.38292594 32.45767406-21.42035719 66.54144469-23.99141343 101.62198032-0.14678062 2.00695969-0.03645562 3.96786938 0.29452031 5.85491062l-46.57738031 0c-47.18177062 0-85.56726563 38.385495-85.56726563 85.56726563l0 404.92897781c0 47.18272969 38.385495 85.56726563 85.56726563 85.56726562l708.54872437 0c47.18177062 0 85.56630562-38.385495 85.56630563-85.56726562L944.0910425 462.03035938C944.09200156 414.84858875 905.70650656 376.46309375 858.52569594 376.46309375zM254.40121156 374.07911c4.844715-62.76064781 30.99850312-121.0958175 74.86859907-166.09986469 48.80882719-50.07133125 113.70402844-77.64591563 182.73018937-77.64591562s133.92040219 27.57554344 182.72922938 77.64591562c43.86913687 45.00404719 70.02388406 103.33825687 74.86859906 166.09986469 0.06235781 0.8077725 0.16692656 1.60211344 0.30699187 2.38398375L254.09517969 376.46309375C254.234285 375.68122437 254.33885469 374.8868825 254.40121156 374.07911zM881.73428 866.95933719c0 12.79772344-10.41182063 23.20954406-23.208585 23.20954406L149.97697156 890.16888125c-12.79772344 0-23.20954406-10.41277969-23.20954406-23.20954406L126.7674275 462.03035938c0-12.79772344 10.41182063-23.20954406 23.20954406-23.20954407l708.54872438 0c12.79772344 0 23.208585 10.41182063 23.208585 23.20954407L881.73428 866.95933719z" p-id="4292"></path><path d="M507.80092719 536.06144656c-26.71212937 1.98393469-48.35889281 23.42251969-50.57499 50.11642125-1.60019531 19.26853594 6.74902406 36.66729937 20.46772312 47.63554313 9.43712156 7.54624406 14.67421125 19.17547875 14.67421125 31.25848687L492.36787063 771.96838156c0 10.00026 6.91691062 18.94523531 16.75120312 20.75936531 13.01453625 2.40125156 24.47588531-7.65465 24.47588531-20.25666562L533.59495906 663.43428781c0-11.79712125 5.07879656-23.06660062 14.05543031-30.72125062 11.82206438-10.08084563 19.31938125-25.08315375 19.31938125-41.83723406C566.96977063 559.12804719 540.05617813 533.66595031 507.80092719 536.06144656z" p-id="4293"></path></svg>