<?xml version="1.0" standalone="no"?><!DOCTYPE svg PUBLIC "-//W3C//DTD SVG 1.1//EN" "http://www.w3.org/Graphics/SVG/1.1/DTD/svg11.dtd"><svg t="1637551814102" class="icon" viewBox="0 0 1024 1024" version="1.1" xmlns="http://www.w3.org/2000/svg" p-id="4029" xmlns:xlink="http://www.w3.org/1999/xlink" width="200" height="200"><defs><style type="text/css"></style></defs><path d="M751.39413331 140.58951112c-15.63306667-10.17173333-36.864-5.80266667-47.17226666 10.0352-10.17173333 15.83786667-5.7344 37.00053333 10.10346666 47.24053333C821.36746665 267.42897779 885.33333331 385.18897779 885.33333331 512.91591112c0 206.848-168.00426667 375.12533333-374.44266666 375.12533333s-374.44266667-168.27733333-374.44266667-375.12533333c0-127.65866667 64.03413333-245.48693333 171.14453333-314.9824 15.83786667-10.24 20.34346667-31.47093333 10.10346667-47.3088C307.31946665 134.71857779 286.22506665 130.21297779 270.45546665 140.52124445 143.75253331 222.78257779 68.11306665 361.97831112 68.11306665 512.91591112 68.11306665 757.51537779 266.70079998 956.44444445 510.89066665 956.44444445S953.59999998 757.51537779 953.59999998 512.91591112C953.59999998 361.91004445 878.02879998 222.71431112 751.39413331 140.58951112zM510.89066665 542.74844445c18.8416 0 34.13333333-15.63306667 34.13333333-35.0208l0-406.18666666c0-19.31946667-15.29173333-34.95253333-34.13333333-34.95253334s-34.13333333 15.63306667-34.13333334 34.95253334l0 406.18666666C476.75733331 527.11537779 491.98079998 542.74844445 510.89066665 542.74844445z" p-id="4030"></path></svg>