<?xml version="1.0" standalone="no"?><!DOCTYPE svg PUBLIC "-//W3C//DTD SVG 1.1//EN" "http://www.w3.org/Graphics/SVG/1.1/DTD/svg11.dtd"><svg t="1637156207379" class="icon" viewBox="0 0 1024 1024" version="1.1" xmlns="http://www.w3.org/2000/svg" p-id="24019" xmlns:xlink="http://www.w3.org/1999/xlink" width="200" height="200"><defs><style type="text/css"></style></defs><path d="M900.36148148 512a388.36148148 388.36148148 0 1 0-564.83293866 346.03008 38.83614815 38.83614815 0 0 1-35.41856712 69.1283437 466.03377778 466.03377778 0 1 1 529.88040533-74.41005986l59.03094519 59.03094519A38.83614815 38.83614815 0 0 1 861.52533333 978.03377778l-155.34459258 0a38.68080355 38.68080355 0 0 1-38.83614816-38.83614815l0-155.3445926a38.68080355 38.68080355 0 0 1 66.33214104-27.49599288l41.39933392 41.39933393A387.8954477 387.8954477 0 0 0 900.36148148 512z" p-id="24020"></path></svg>