<?xml version="1.0" standalone="no"?><!DOCTYPE svg PUBLIC "-//W3C//DTD SVG 1.1//EN" "http://www.w3.org/Graphics/SVG/1.1/DTD/svg11.dtd"><svg t="1635906686937" class="icon" viewBox="0 0 1024 1024" version="1.1" xmlns="http://www.w3.org/2000/svg" p-id="837" xmlns:xlink="http://www.w3.org/1999/xlink" width="200" height="200"><defs><style type="text/css"></style></defs><path d="M346.29921891 213.7459555a215.99810668 215.99810668 0 0 1-152.72123612 24.35608748 424.77506181 424.77506181 0 0 0-69.37201203 114.09419483 216.04706367 216.04706367 0 0 1 57.40203535 146.79744399 216.09602061 216.09602061 0 0 1-63.83987557 153.48006903 419.80593037 419.80593037 0 0 0 76.42181425 131.91452821 216.12049909 216.12049909 0 0 1 163.95685845 21.68793317 216.04706367 216.04706367 0 0 1 97.88944111 121.31534644 420.29549998 420.29549998 0 0 0 132.82023197-2.9374176 216.09602061 216.09602061 0 0 1 100.99820812-132.03692061 216.04706367 216.04706367 0 0 1 155.83000307-23.69516853 424.77506181 424.77506181 0 0 0 64.13361735-117.10504789 215.99810668 215.99810668 0 0 1-55.27240763-144.42303144c0-53.41204315 19.53382698-103.54397 53.26517223-142.21996822a420.3199785 420.3199785 0 0 0-58.43013149-107.14230657 216.12049909 216.12049909 0 0 1-161.85170911-22.27541672 216.19393457 216.19393457 0 0 1-102.76065869-139.08672283 419.80593037 419.80593037 0 0 0-141.95070496 0.02447847 215.94914972 215.94914972 0 0 1-96.5186463 117.25191879z m34.51465672-178.47259703c87.68191502-24.47847989 182.09541202-24.82117864 272.34756741 1.86036447a142.95432264 142.95432264 0 0 0 217.6871218 132.69783956 493.60854732 493.60854732 0 0 1 121.02160464 218.25012686 142.7829733 142.7829733 0 0 0-63.88883251 119.08780474 142.83193024 142.83193024 0 0 0 65.60232616 120.23829331 493.90228904 493.90228904 0 0 1-52.33499012 130.3968624 494.75903589 494.75903589 0 0 1-73.38648269 97.25300071 142.88088722 142.88088722 0 0 0-141.28978603 0.97913922 142.9053657 142.9053657 0 0 0-71.42820438 127.92453597 493.70646122 493.70646122 0 0 1-262.2624337 5.87483518 142.85640871 142.85640871 0 0 0-71.45268285-120.16485786 142.9053657 142.9053657 0 0 0-145.62247697 1.54214421A493.29032704 493.29032704 0 0 1 33.09706852 624.81306855a142.9053657 142.9053657 0 0 0 75.07549789-125.81938675c0-52.21259765-28.00338102-97.91391964-69.8126247-122.83301215a494.75903589 494.75903589 0 0 1 47.56168647-112.18487341 493.90228904 493.90228904 0 0 1 86.75173275-110.54481525 142.83193024 142.83193024 0 0 0 136.90813813-3.28011631 142.7829733 142.7829733 0 0 0 71.23237657-114.87750621z m141.06947968 589.44179612a105.35537753 105.35537753 0 1 0 0-210.75971198 105.35537753 105.35537753 0 0 0 0 210.75971198z m0 73.43543976a178.79081728 178.79081728 0 1 1 0-357.63059145 178.79081728 178.79081728 0 0 1 0 357.63059145z" p-id="838"></path></svg>