<?xml version="1.0" standalone="no"?><!DOCTYPE svg PUBLIC "-//W3C//DTD SVG 1.1//EN" "http://www.w3.org/Graphics/SVG/1.1/DTD/svg11.dtd"><svg t="1637314797867" class="icon" viewBox="0 0 1024 1024" version="1.1" xmlns="http://www.w3.org/2000/svg" p-id="2721" xmlns:xlink="http://www.w3.org/1999/xlink" width="200" height="200"><defs><style type="text/css"></style></defs><path d="M47.78666667 2.27555555l927.28888888 0c25.13464889 0 45.51111111 20.37646222 45.51111112 45.51111112s-20.37646222 45.51111111-45.51111112 45.51111111L47.78666667 93.29777778c-25.13464889 0-45.51111111-20.37646222-45.51111112-45.51111111s20.37646222-45.51111111 45.51111112-45.51111112z m1.13777778 464.21333334l525.65333333 0c25.13464889 0 45.51111111 20.37646222 45.51111111 45.51111111s-20.37646222 45.51111111-45.51111111 45.51111111L48.92444445 557.51111111c-25.13464889 0-45.51111111-20.37646222-45.51111112-45.51111111s20.37646222-45.51111111 45.51111112-45.51111111z m0 464.21333333l927.28888888 0c25.13464889 0 45.51111111 20.37646222 45.51111112 45.51111111s-20.37646222 45.51111111-45.51111112 45.51111112L48.92444445 1021.72444445c-25.13464889 0-45.51111111-20.37646222-45.51111112-45.51111112s20.37646222-45.51111111 45.51111112-45.51111111z m758.47338666-646.17927111l201.73255112 201.73255111c14.21880889 14.21767111 14.21880889 37.27132445 0 51.48899556L807.39783111 739.47704889c-14.21767111 14.21880889-37.27132445 14.21880889-51.48899556 0A36.40888889 36.40888889 0 0 1 745.24444445 713.73255111L745.24444445 310.26744889c0-20.10794667 16.30094222-36.40888889 36.40888888-36.4088889a36.40888889 36.40888889 0 0 1 25.74449778 10.66439112z" p-id="2722"></path></svg>