<?xml version="1.0" standalone="no"?><!DOCTYPE svg PUBLIC "-//W3C//DTD SVG 1.1//EN" "http://www.w3.org/Graphics/SVG/1.1/DTD/svg11.dtd"><svg t="1637314793117" class="icon" viewBox="0 0 1024 1024" version="1.1" xmlns="http://www.w3.org/2000/svg" p-id="2594" xmlns:xlink="http://www.w3.org/1999/xlink" width="200" height="200"><defs><style type="text/css"></style></defs><path d="M976.21333333 1021.72444445l-927.28888888 0c-25.13464889 0-45.51111111-20.37646222-45.51111112-45.51111113s20.37646222-45.51111111 45.51111112-45.5111111L976.21333333 930.70222222c25.13464889 0 45.51111111 20.37646222 45.51111112 45.51111111s-20.37646222 45.51111111-45.51111112 45.51111112z m-1.13777778-464.21333334l-525.65333333 0c-25.13464889 0-45.51111111-20.37646222-45.51111111-45.51111111s20.37646222-45.51111111 45.51111111-45.51111111L975.07555555 466.48888889c25.13464889 0 45.51111111 20.37646222 45.51111112 45.51111111s-20.37646222 45.51111111-45.51111112 45.51111111z m0-464.21333333l-927.28888888 0c-25.13464889 0-45.51111111-20.37646222-45.51111112-45.51111111s20.37646222-45.51111111 45.51111112-45.51111112L975.07555555 2.27555555c25.13464889 0 45.51111111 20.37646222 45.51111112 45.51111113s-20.37646222 45.51111111-45.51111112 45.5111111z m-758.47338666 646.17927111l-201.73255111-201.73255111c-14.21880889-14.21767111-14.21880889-37.27132445 0-51.48899556L216.60216889 284.52295111c14.21767111-14.21880889 37.27132445-14.21880889 51.48899556 0A36.40888889 36.40888889 0 0 1 278.75555555 310.26744889L278.75555555 713.73255111c0 20.10794666-16.30094222 36.40888889-36.40888888 36.40888889a36.40888889 36.40888889 0 0 1-25.74449778-10.66439111z" p-id="2595"></path></svg>